<svg width="75" height="75" viewBox="0 0 75 75" fill="none" xmlns="http://www.w3.org/2000/svg">
<rect width="75" height="75" rx="37.5" fill="#BFD730"/>
<path d="M56.5351 47.7649L40.5758 19.7752C39.9424 18.6608 38.7932 18 37.5002 18C36.2073 18 35.058 18.6609 34.4246 19.7752L18.4653 47.7649C17.8384 48.8663 17.845 50.1687 18.4849 51.2636C19.1248 52.3521 20.2676 53 21.5409 53H53.4591C54.7325 53 55.8752 52.3521 56.5151 51.2636C57.155 50.1687 57.1616 48.8664 56.5347 47.7649H56.5351ZM35.5416 45.3158C35.5416 44.2468 36.4232 43.3721 37.5006 43.3721C38.578 43.3721 39.4596 44.2468 39.4596 45.3158C39.4596 46.3849 38.578 47.2596 37.5006 47.2596C36.4232 47.2596 35.5416 46.3849 35.5416 45.3158ZM39.5249 39.5234C39.4726 40.5925 38.578 41.4283 37.5006 41.4283C36.4231 41.4283 35.5285 40.5925 35.4763 39.5234L34.9931 30.4461C34.9539 29.7528 35.202 29.0984 35.6787 28.5995C36.1554 28.1007 36.8018 27.822 37.5006 27.822C38.1993 27.822 38.8457 28.1006 39.3224 28.5995C39.7991 29.0984 40.0472 29.7528 40.008 30.4461L39.5249 39.5234Z" fill="#142F53"/>
</svg>
