<svg width="26" height="26" viewBox="0 0 26 26" fill="none" xmlns="http://www.w3.org/2000/svg">
<rect x="1" y="1" width="24" height="24" rx="12" fill="#142F53"/>
<path d="M26 13C26 9.55219 24.6304 6.24559 22.1924 3.80761C19.7544 1.36964 16.4478 -4.17539e-07 13 -5.68248e-07C9.55219 -7.18957e-07 6.24559 1.36964 3.80761 3.80761C1.36964 6.24558 2.38112e-07 9.55219 8.7403e-08 13C1.27796e-08 14.7072 0.336255 16.3977 0.989566 17.9749C1.64288 19.5521 2.60045 20.9852 3.80761 22.1924C5.01477 23.3996 6.44788 24.3571 8.02512 25.0104C9.60235 25.6637 11.2928 26 13 26C14.7072 26 16.3977 25.6637 17.9749 25.0104C19.5521 24.3571 20.9852 23.3996 22.1924 22.1924C23.3995 20.9852 24.3571 19.5521 25.0104 17.9749C25.6637 16.3977 26 14.7072 26 13ZM6.15789 10.5368L8.09831 8.62105L13 13.5091L17.9017 8.62105L19.8421 10.5505L13 17.3926L6.15789 10.5368Z" fill="#BFD730"/>
</svg>
