<svg width="150" height="38" viewBox="0 0 150 38" fill="none" xmlns="http://www.w3.org/2000/svg">
<path d="M9.55442 37.884V32.9607H10.9313C12.2664 32.9607 12.8505 33.378 12.8505 34.2124C12.8505 35.0469 12.6002 35.0886 12.0995 35.2555C12.8088 35.5058 13.0174 35.9648 13.0174 36.5071C13.0174 37.6337 12.0995 37.884 11.0982 37.884H9.5127H9.55442ZM10.973 35.0886C11.4737 35.0886 12.2247 35.0051 12.2247 34.2959C12.2247 33.5866 11.4737 33.5449 10.8895 33.5449H10.1803V35.0886H10.973ZM11.0982 37.3416C12.016 37.3416 12.3915 37.0913 12.3915 36.5071C12.3915 35.923 11.9326 35.5893 11.1816 35.5893H10.1803V37.3416H11.0982Z" fill="#BFD730"/>
<path d="M21.1949 32.9607H21.8625V35.9648C21.8625 37.2164 21.3201 37.9674 19.9432 37.9674C18.5664 37.9674 18.1492 37.2164 18.1492 35.9648V32.9607H18.8167V36.0899C18.8167 37.0078 19.1505 37.425 19.985 37.425C20.8194 37.425 21.2366 37.0078 21.2366 36.0899V32.9607H21.1949Z" fill="#BFD730"/>
<path d="M29.5394 34.1707C29.3307 33.67 29.0387 33.4197 28.4963 33.4197C27.9539 33.4197 27.5784 33.67 27.5784 34.1707C27.5784 35.2972 30.2486 34.7548 30.2486 36.5489C30.2486 38.3429 29.5811 37.9674 28.5797 37.9674C27.5784 37.9674 27.1194 37.5919 26.8274 36.674L27.4532 36.4654C27.6618 37.0913 27.9539 37.3833 28.6215 37.3833C29.289 37.3833 29.6228 37.0913 29.6228 36.5489C29.6228 35.2972 26.9943 35.923 26.9943 34.1707C26.9943 32.4184 27.6201 32.8356 28.538 32.8356C29.4559 32.8356 29.9149 33.2111 30.1235 33.9621L29.5811 34.1707H29.5394Z" fill="#BFD730"/>
<path d="M35.2971 37.884V32.9607H35.9647V37.884H35.2971Z" fill="#BFD730"/>
<path d="M44.4344 37.884L42.0145 33.7535V37.884H41.3887V32.9607H42.3066L44.4344 36.7158V32.9607H45.0602V37.884H44.4344Z" fill="#BFD730"/>
<path d="M50.4841 37.884V32.9607H53.4464V33.5449H51.1099V35.0469H52.7788V35.631H51.1099V37.3416H53.5298V37.9257H50.4424L50.4841 37.884Z" fill="#BFD730"/>
<path d="M60.8313 34.1707C60.6227 33.67 60.3307 33.4197 59.7883 33.4197C59.2459 33.4197 58.8704 33.67 58.8704 34.1707C58.8704 35.2972 61.5406 34.7548 61.5406 36.5489C61.5406 38.3429 60.8731 37.9674 59.8717 37.9674C58.8704 37.9674 58.4114 37.5919 58.1194 36.674L58.7452 36.4654C58.9538 37.0913 59.2459 37.3833 59.9134 37.3833C60.581 37.3833 60.9148 37.0913 60.9148 36.5489C60.9148 35.2972 58.2863 35.923 58.2863 34.1707C58.2863 32.4184 58.9538 32.8356 59.83 32.8356C60.7062 32.8356 61.2068 33.2111 61.4155 33.9621L60.8731 34.1707H60.8313Z" fill="#BFD730"/>
<path d="M68.9253 34.1707C68.7167 33.67 68.4247 33.4197 67.8823 33.4197C67.3399 33.4197 66.9644 33.67 66.9644 34.1707C66.9644 35.2972 69.6346 34.7548 69.6346 36.5489C69.6346 38.3429 68.9671 37.9674 67.9657 37.9674C66.9644 37.9674 66.5054 37.5919 66.2134 36.674L66.8392 36.4654C67.0478 37.0913 67.3399 37.3833 68.0074 37.3833C68.675 37.3833 69.0088 37.0913 69.0088 36.5489C69.0088 35.2972 66.3803 35.923 66.3803 34.1707C66.3803 32.4184 67.0061 32.8356 67.924 32.8356C68.8419 32.8356 69.3008 33.2111 69.5095 33.9621L68.9671 34.1707H68.9253Z" fill="#BFD730"/>
<path d="M81.3588 37.884V33.5032H79.9402V32.9191H83.4032V33.5032H81.9846V37.884H81.317H81.3588Z" fill="#BFD730"/>
<path d="M91.2053 37.884L90.1622 35.7562H89.0357V37.884H88.3682V32.9608H89.9119C91.2053 32.9608 91.7477 33.4197 91.7477 34.3376C91.7477 35.2555 91.3722 35.4224 90.7881 35.631L91.9563 37.9258H91.2053V37.884ZM89.9119 35.2138C90.3291 35.2138 91.0801 35.1304 91.0801 34.3794C91.0801 33.6284 90.496 33.5449 89.9536 33.5449H89.0357V35.2138H89.9119Z" fill="#BFD730"/>
<path d="M99.8417 37.884L99.3828 36.4238H97.6304L97.1715 37.884H96.5039L98.0476 32.9608H98.9655L100.509 37.884H99.8H99.8417ZM97.7973 35.8397H99.2159L98.5066 33.5032L97.7973 35.8397Z" fill="#BFD730"/>
<path d="M105.474 37.884V32.9608H106.142V37.884H105.474Z" fill="#BFD730"/>
<path d="M114.57 37.884L112.15 33.7535V37.884H111.524V32.9608H112.442L114.57 36.7158V32.9608H115.196V37.884H114.528H114.57Z" fill="#BFD730"/>
<path d="M120.619 37.884V32.9608H121.287V37.884H120.619Z" fill="#BFD730"/>
<path d="M129.757 37.884L127.337 33.7535V37.884H126.711V32.9608H127.629L129.757 36.7158V32.9608H130.383V37.884H129.715H129.757Z" fill="#BFD730"/>
<path d="M138.727 37.884V37.3833C138.435 37.8005 138.018 37.9674 137.434 37.9674C136.14 37.9674 135.515 37.0078 135.515 35.4223C135.515 33.8369 136.224 32.8356 137.476 32.8356C138.727 32.8356 138.936 33.2528 139.228 34.2958L138.602 34.421C138.393 33.7117 138.018 33.4197 137.476 33.4197C136.641 33.4197 136.14 34.129 136.14 35.4223C136.14 36.7157 136.599 37.3833 137.517 37.3833C138.435 37.3833 138.686 36.9661 138.686 36.2151C138.686 35.4641 138.686 36.0899 138.686 36.0065H137.517V35.4641H139.27V37.8423H138.727V37.884Z" fill="#BFD730"/>
<path d="M41.2634 25.7011C35.9646 25.7011 33.2527 21.6957 33.2527 16.0215C33.2527 10.3472 36.5488 6.55047 41.3468 6.55047C46.1449 6.55047 49.1489 10.1386 49.1489 15.7711C49.1489 21.4037 49.1489 16.397 49.1489 16.9394H37.4667C37.6335 20.1937 38.7183 22.2798 41.5972 22.2798C44.476 22.2798 44.8515 21.4037 45.8946 19.4427L49.1489 21.1116C47.2297 24.6163 44.4343 25.7428 41.3051 25.7428L41.2634 25.7011ZM37.5501 14.0605H45.1019C45.1019 11.4737 43.725 9.7631 41.4303 9.7631C39.1356 9.7631 37.9256 11.5989 37.5501 14.0605Z" fill="white"/>
<path d="M63.7099 11.8074C62.6668 10.2219 61.4986 9.72127 59.9966 9.72127C58.4946 9.72127 57.535 10.4723 57.535 11.6822C57.535 15.1869 67.298 12.8505 67.298 19.9433C67.298 27.0361 64.4192 25.6592 60.1635 25.6592C55.9078 25.6592 54.6561 24.5327 52.8203 21.9459L55.8661 19.8181C57.1177 21.6122 58.1191 22.4049 60.2052 22.4049C62.2913 22.4049 63.1675 21.5704 63.1675 20.2353C63.1675 16.3134 53.4879 18.9419 53.4879 11.8908C53.4879 4.83974 56.1998 6.46692 60.0383 6.46692C63.8768 6.46692 65.2536 7.42653 66.7139 9.92988L63.7516 11.7657L63.7099 11.8074Z" fill="white"/>
<path d="M72.2214 29.164V6.92596H76.1851V9.2207C77.7705 7.5518 79.356 6.50874 81.7342 6.50874C86.115 6.50874 88.6601 10.2638 88.6601 15.8546C88.6601 21.4454 85.8647 25.4925 81.2335 25.4925C76.6023 25.4925 77.8123 24.8249 76.4771 23.5732V31.2919L72.2214 29.164ZM76.4771 20.152C77.4367 21.4037 78.7301 22.0712 80.1904 22.0712C82.9858 22.0712 84.3209 19.7348 84.3209 15.8546C84.3209 11.9744 82.7772 10.0969 80.2739 10.0969C77.7705 10.0969 77.6454 10.8061 76.5189 12.3499V20.152H76.4771Z" fill="white"/>
<path d="M92.874 16.1884C92.874 10.1386 95.9615 6.55047 101.093 6.55047C106.225 6.55047 109.271 10.1386 109.271 16.1884C109.271 22.2381 106.183 25.7011 101.093 25.7011C96.0032 25.7011 92.874 22.1129 92.874 16.1884ZM104.89 16.1884C104.89 12.6419 103.805 9.92999 101.093 9.92999C98.3814 9.92999 97.2549 12.6419 97.2549 16.1884C97.2549 19.7348 98.4231 22.3216 101.093 22.3216C103.764 22.3216 104.89 19.8599 104.89 16.1884Z" fill="white"/>
<path d="M126.002 25.2837L121.496 16.6472L118.742 19.7764V25.2837H114.528V2.16948L118.742 0.0416336V14.8948H118.825L125 7.00929H129.84L124.416 13.3094L130.633 25.3254H126.002V25.2837Z" fill="white"/>
<path d="M141.606 25.7011C136.307 25.7011 133.595 21.6957 133.595 16.0215C133.595 10.3472 136.891 6.55047 141.689 6.55047C146.487 6.55047 149.491 10.1386 149.491 15.7711C149.491 21.4037 149.491 16.397 149.491 16.9394H137.809C137.976 20.1937 139.061 22.2798 141.94 22.2798C144.819 22.2798 145.194 21.4037 146.237 19.4427L149.491 21.1116C147.572 24.6163 144.777 25.7428 141.648 25.7428L141.606 25.7011ZM137.893 14.0605H145.444C145.444 11.4737 144.068 9.7631 141.773 9.7631C139.478 9.7631 138.268 11.5989 137.893 14.0605Z" fill="white"/>
<path d="M13.6013 10.1386C13.8517 10.1386 14.102 10.1386 14.3106 10.1386V4.00536H17.5232C19.3173 4.00536 21.2365 4.17225 22.1962 5.21531L22.6134 5.13186L27.328 4.13052C26.3267 1.41856 23.2809 0 17.6484 0H9.6377V9.51272C10.9311 9.92995 12.3079 10.1386 13.6848 10.1386H13.6013Z" fill="white"/>
<path d="M25.5759 12.6836C24.3659 13.518 23.2394 14.1021 21.8626 14.6028C23.0308 15.1869 23.6984 16.1465 23.6984 17.6903C23.6984 20.0685 22.1964 21.2784 18.191 21.2784H14.3108V15.8545C12.6836 15.7293 11.0982 15.3538 9.55444 14.728V25.242H18.1493C23.6566 25.242 28.5799 23.8235 28.5799 18.0658C28.5799 12.3081 27.6203 13.8518 25.6176 12.6836H25.5759Z" fill="white"/>
<path d="M30.9998 4.33906L22.7805 6.09141L23.9904 7.50997C23.9904 7.50997 11.2233 17.9823 0 3.46289C0 3.46289 6.30009 18.9002 20.8612 13.9769C22.9056 13.2677 24.4076 12.5167 26.7024 10.6809L28.1627 12.3915L30.9998 4.42251V4.33906Z" fill="#BFD730"/>
</svg>
