<svg width="15" height="15" viewBox="0 0 15 15" fill="none" xmlns="http://www.w3.org/2000/svg">
<path d="M13.8874 8.81497L11.5162 8.26624C10.8693 8.11703 10.204 8.43086 9.90848 9.02481L8.84276 11.161C6.64679 10.1223 4.87828 8.35376 3.83947 6.15797L5.97574 5.09232C6.56975 4.79582 6.88263 4.13063 6.7334 3.48373L6.1856 1.11366C6.02868 0.430187 5.39906 -0.0405628 4.69819 0.00276137L1.34887 0.204919C0.585425 0.251126 -0.00855729 0.888396 9.32928e-05 1.65275C0.0376383 5.3772 1.34019 8.56367 3.86919 11.1195L3.87978 11.1301C6.43676 13.661 9.62145 14.9615 13.3481 14.9999C14.1125 15.0067 14.7489 14.4137 14.7951 13.6503L14.9972 10.3012C15.0406 9.60034 14.5709 8.97188 13.8874 8.81497Z" fill="#142F53"/>
</svg>
