<svg width="32" height="28" viewBox="0 0 32 28" fill="none" xmlns="http://www.w3.org/2000/svg">
<path d="M30.8281 23.8119L18.0607 1.4202C17.5539 0.528677 16.6345 0 15.6002 0C14.5658 0 13.6464 0.52871 13.1397 1.4202L0.372248 23.8119C-0.129249 24.6931 -0.124033 25.7349 0.38792 26.6109C0.899849 27.4817 1.81404 28 2.83272 28H28.3673C29.386 28 30.3001 27.4817 30.8121 26.6109C31.324 25.7349 31.3293 24.6931 30.8278 23.8119H30.8281ZM14.0333 21.8527C14.0333 20.9974 14.7385 20.2977 15.6005 20.2977C16.4624 20.2977 17.1677 20.9974 17.1677 21.8527C17.1677 22.7079 16.4624 23.4076 15.6005 23.4076C14.7385 23.4076 14.0333 22.7079 14.0333 21.8527ZM17.2199 17.2187C17.1781 18.074 16.4624 18.7426 15.6004 18.7426C14.7385 18.7426 14.0228 18.074 13.981 17.2187L13.5945 9.95685C13.5631 9.40223 13.7616 8.87873 14.143 8.47963C14.5243 8.08052 15.0415 7.85764 15.6004 7.85764C16.1594 7.85764 16.6766 8.08052 17.0579 8.47963C17.4393 8.87874 17.6378 9.40223 17.6064 9.95685L17.2199 17.2187Z" fill="#142F53"/>
</svg>
